<?xml version="1.0" encoding="utf-8"?>
<!-- Svg Vector Icons : http://www.onlinewebfonts.com/icon -->
<!DOCTYPE svg PUBLIC "-//W3C//DTD SVG 1.1//EN" "http://www.w3.org/Graphics/SVG/1.1/DTD/svg11.dtd">
<svg version="1.1" xmlns="http://www.w3.org/2000/svg" xmlns:xlink="http://www.w3.org/1999/xlink" x="0px" y="0px" viewBox="0 0 1000 1000" enable-background="new 0 0 1000 1000" xml:space="preserve">
<metadata> Svg Vector Icons : http://www.onlinewebfonts.com/icon </metadata>
<g><path d="M168,594.8h63.2v-63.2H168V594.8z M326.1,594.8h63.2v-63.2h-63.2V594.8z M990,359C990,209.9,832.5,89,638.2,89c-133.1,0-249,56.8-308.7,140.5c24.8-6.1,50.8-10.1,77.7-11.8c54.9-40.1,132.4-65.6,219.1-65.6c166.1,0,300.7,92,300.7,205.4c0,50.1-27.1,95.3-70.9,130.7l21.1,127l-95.1-76.4c-7,27.1-19.1,52.8-35.8,76.3c16.4-4.1,32.5-8.8,47.8-14.6l132,88.4l-19.4-156C958.6,486.1,990,425.4,990,359z M357.8,278.4C165.7,278.4,10,398.8,10,547.3c0,79.2,44.6,150.3,115.1,199.5L104.6,911l158.1-105.1c30.3,6.7,62.2,10.4,95.2,10.4c192.1,0,347.8-120.4,347.8-268.9C705.7,398.8,549.9,278.4,357.8,278.4z M357.8,753.2c-30,0-58.4-4.3-85.5-10.5l-118.4,94.5L176,704.6C113.5,666.8,73,610.8,73,547.3c0-113.7,127.5-205.9,284.9-205.9c157.3,0,284.9,92.1,284.9,205.9S515.1,753.2,357.8,753.2z M484.2,594.8h63.2v-63.2h-63.2V594.8z"/></g>
</svg>