<?xml version="1.0" encoding="utf-8"?>
<!-- Generator: Adobe Illustrator 22.1.0, SVG Export Plug-In . SVG Version: 6.00 Build 0)  -->
<svg version="1.1" id="Layer_1" xmlns="http://www.w3.org/2000/svg" xmlns:xlink="http://www.w3.org/1999/xlink" x="0px" y="0px"
	 viewBox="0 0 512 512" style="enable-background:new 0 0 512 512;" xml:space="preserve">
<g>
	<path d="M420.4,31H94.2C90.7,63.8,63.9,90.6,31,94v326.5c32.9,4.3,58,28.5,63.2,60.5h327.1c2.6-32,28.6-57.8,59.7-61.3V94
		C449,88.8,423.9,63,420.4,31z M387.9,386.9c-31.9,0-16.5-1.8-48.4-1.8c-31.5,0-18.5,1.8-49.3,1.8c-5.2,0-4.3-7.2,0-8.6
		c20-6.7,20.1-9,21.6-11.2c9.1-13.7,5.2-72.9,5.2-99.3c0-4.7-5.6-11.2-12.1-11.2h-97.7c-6.5,0-12.1,6.6-12.1,11.2
		c0,26.4-4,85.6,5.2,99.3c1.5,2.2,1.6,4.6,21.6,11.2c4.3,1.4,5.3,8.6,0,8.6c-30.8,0-17.8-1.8-49.3-1.8c-31.9,0-16.5,1.8-48.4,1.8
		c-6.9,0-5.1-9.5,0-9.5c9-3,11.9-3.1,19.1-12.1c6.8-11.3,6.9-39,6.9-112.3V164c0-19.5-10.7-24.9-25.1-28.5
		c-7.7-1.9-3.5-10.4,0.9-10.4c32.1,0,18.1,1.8,50.2,1.8c28.7,0,14.5-1.8,43.2-1.8c2.9,0,7.5,7.3,0.9,9.5
		c-4.3,1.4-24.3,3.3-24.3,34.5c0,40.1-0.2,49,0.9,60.5c0,1.1,2,11.2,11.3,11.2h96c9.2,0,11.2-10.1,11.2-11.2
		c1.1-11.4,0.9-20.4,0.9-60.5c0-31.3-20-33.1-24.3-34.5c-6.6-2.2-2-9.5,0.9-9.5c28.7,0,14.5,1.8,43.2,1.8c32.1,0,18.1-1.8,50.2-1.8
		c4.3,0,8.7,8.4,0.9,10.4c-14.4,3.6-25.1,9.1-25.1,28.5v88.9c0,73.3,0.1,101,6.9,112.3c7.2,9,10,9.1,19.1,12.1
		C393,377.4,394.8,386.9,387.9,386.9L387.9,386.9z"/>
</g>
</svg>
