<?xml version="1.0" encoding="utf-8"?>
<!-- Generator: Adobe Illustrator 23.0.3, SVG Export Plug-In . SVG Version: 6.00 Build 0)  -->
<svg version="1.1" fill="current" id="Layer_1" xmlns="http://www.w3.org/2000/svg"
	xmlns:xlink="http://www.w3.org/1999/xlink" x="0px" y="0px" viewBox="0 0 50 50"
	style="enable-background:new 0 0 50 50;" xml:space="preserve">
	<g>
		<g>
			<path class="st43" d="M23.7,27.5h-9.1c-3.6,0-6.6-3-6.6-6.6v-3.5c0-3.6,3-6.6,6.6-6.6h3.5c3.6,0,6.6,3,6.6,6.6v9.1
			C24.7,27,24.3,27.5,23.7,27.5z M14.6,12.7c-2.5,0-4.6,2.1-4.6,4.6v3.5c0,2.5,2.1,4.6,4.6,4.6h8.1v-8.1c0-2.5-2.1-4.6-4.6-4.6H14.6
			z" />
			<path class="st43" d="M36.8,27.5h-9.1c-0.6,0-1-0.4-1-1v-9.1c0-3.6,3-6.6,6.6-6.6h3.5c3.6,0,6.6,3,6.6,6.6v3.5
			C43.5,24.5,40.5,27.5,36.8,27.5z M28.7,25.5h8.1c2.5,0,4.6-2.1,4.6-4.6v-3.5c0-2.5-2.1-4.6-4.6-4.6h-3.5c-2.5,0-4.6,2.1-4.6,4.6
			V25.5z" />
			<path class="st43" d="M18.1,46.3h-3.5c-3.6,0-6.6-3-6.6-6.6v-3.5c0-3.6,3-6.6,6.6-6.6h9.1c0.6,0,1,0.4,1,1v9.1
			C24.7,43.3,21.7,46.3,18.1,46.3z M14.6,31.5c-2.5,0-4.6,2.1-4.6,4.6v3.5c0,2.5,2.1,4.6,4.6,4.6h3.5c2.5,0,4.6-2.1,4.6-4.6v-8.1
			H14.6z" />
			<path class="st43" d="M36.8,46.3h-3.5c-3.6,0-6.6-3-6.6-6.6v-9.1c0-0.6,0.4-1,1-1h9.1c3.6,0,6.6,3,6.6,6.6v3.5
			C43.5,43.3,40.5,46.3,36.8,46.3z M28.7,31.5v8.1c0,2.5,2.1,4.6,4.6,4.6h3.5c2.5,0,4.6-2.1,4.6-4.6v-3.5c0-2.5-2.1-4.6-4.6-4.6
			H28.7z" />
		</g>
	</g>
</svg>