<?xml version="1.0" encoding="utf-8"?>
<!-- Svg Vector Icons : http://www.onlinewebfonts.com/icon -->
<!DOCTYPE svg PUBLIC "-//W3C//DTD SVG 1.1//EN" "http://www.w3.org/Graphics/SVG/1.1/DTD/svg11.dtd">
<svg version="1.1" fill="#69F0AE" xmlns="http://www.w3.org/2000/svg" xmlns:xlink="http://www.w3.org/1999/xlink" x="0px"
    y="0px" viewBox="0 0 1000 1000" enable-background="new 0 0 1000 1000" xml:space="preserve">
    <metadata> Svg Vector Icons : http://www.onlinewebfonts.com/icon </metadata>
    <g>
        <path
            d="M813.4,262.8c114.3,0,103.9-5.2,103.9,97v361.9c0,32.9,0,76.2,0,102.2c0,31.2-26,27.7-53.7,27.7h-677c-93.5,0-97-1.7-97-48.5V408.2c0-27.7,0-91.8,0-119.5c0-15.6,3.5-26,20.8-26C344.2,262.8,579.6,262.8,813.4,262.8L813.4,262.8z M780.5,56.8c-32.9,0-24.2,0-50.2,0L803,171h34.6c24.2,0,34.6,0,26-17.3c-6.9-15.6-26-43.3-48.5-77.9C804.6,59.6,793.4,56.8,780.5,56.8z M901.7,56.8c-32.9,0-41.6,0-67.5,0L906.9,171h51.9c24.2,0,34.6,0,26-17.3c-6.9-15.6-26-43.3-48.5-77.9C926.8,59.4,914.6,56.8,901.7,56.8z M586.6,425.6c15.6,0,27.7,12.1,27.7,27.7v133.3H732v-58.9c0-15.6,12.1-27.7,27.7-27.7h1.7c15.6,0,27.7,12.1,27.7,27.7v174.9c0,15.6-12.1,27.7-27.7,27.7h-1.7c-15.6,0-27.7-12.1-27.7-27.7V597H614.3v32.9c0,15.6-12.1,27.7-27.7,27.7h-1.7c-15.6,0-27.7-12.1-27.7-27.7V493.1H422.1v24.2c0,15.6-12.1,27.7-27.7,27.7h-1.7c-15.6,0-27.7-12.1-27.7-27.7v-12.1h-90v142h90v-17.3c0-15.6,12.1-27.7,27.7-27.7h1.7c15.6,0,27.7,12.1,27.7,27.7v174.9c0,15.6-12.1,27.7-27.7,27.7h-1.7c-15.6,0-27.7-12.1-27.7-27.7V659.3h-90v3.5c0,15.6-12.1,27.7-27.7,27.7h-1.7c-15.6,0-27.7-12.1-27.7-27.7V487.9c0-15.6,12.1-27.7,27.7-27.7h1.7c15.6,0,27.7,12.1,27.7,27.7v8.7h90V344.2c0-15.6,12.1-27.7,27.7-27.7h1.7c15.6,0,27.7,12.1,27.7,27.7v142h135.1v-27.7C558.9,436.7,565.8,425.6,586.6,425.6L586.6,425.6z M685.3,56.8c-83.1,0-147.2,0-183.5,0c-24.2,0-36.4,8.7-27.7,26c5.2,8.7,13.9,20.8,20.8,32.9c19,27.7,27.7,50.2,45,53.7c5.2,1.7,39.8,1.7,51.9,1.7h150.6c24.2,0,34.6,0,26-17.3c-8.9-15.6-26-43.3-48.5-77.9C710.5,59.4,698.2,56.8,685.3,56.8L685.3,56.8z M990,887.9c0-15.6,0-429.4,0-445c0-43.3,0-206,0-232c0-20.8-10.4-27.7-27.7-27.7c-27.7,0-140.2,0-173.1,0c-38.1,0-244.1,0-264.9,0c-26,0-17.3-8.7-76.2-97c-17.3-26-20.7-29.3-58.8-29.3L96.6,56.7C20.4,56.7,10,58.5,10,86.2c0,38.1,0,81.4,0,119.5v585.2c0,38.1,0,67.5,0,100.4c5.2,43.3,43.3,51.9,81.4,51.9h817.2c53.7,0,81.4-20.8,81.4-51.9L990,887.9z" />
    </g>
</svg>